<svg width="60" height="48" viewBox="0 0 60 48" fill="none" xmlns="http://www.w3.org/2000/svg">
<path fill-rule="evenodd" clip-rule="evenodd" d="M15.5107 48C8.8085 48 4.53176 44.2333 4.53176 38.9988C4.53176 37.276 5.04274 35.1698 7.02149 30.893H0L6.44627 17.1051H51.319C52.341 17.1051 53.0427 16.34 53.0427 15.4465C53.0427 14.553 52.341 13.787 51.319 13.787H15.0007L18.1913 6.95822C20.17 2.74475 24.4468 0 29.106 0H44.3617C53.1702 0 59.6817 6.06375 59.6817 13.9787C59.6817 23.3615 51.064 30.893 41.107 30.893H11.6175C10.723 32.7452 11.745 34.213 13.9145 34.213H37.4045C41.2978 34.213 44.2975 36.9568 44.2975 40.4685C44.2975 44.4893 40.4052 48 36 48H15.5107Z" fill="#DA3940"/>
</svg>
