<svg width="150" height="150" viewBox="0 0 150 150" fill="none" xmlns="http://www.w3.org/2000/svg">
<g clip-path="url(#clip0_152_7366)">
<path d="M75 150C116.421 150 150 116.421 150 75C150 33.5786 116.421 0 75 0C33.5786 0 0 33.5786 0 75C0 116.421 33.5786 150 75 150Z" fill="white"/>
<path d="M106.417 35.3333H43.55C39.0396 35.3333 35.3833 38.9897 35.3833 43.5V96.0333C35.3833 100.544 39.0396 104.2 43.55 104.2H106.417C110.927 104.2 114.583 100.544 114.583 96.0333V43.5C114.583 38.9897 110.927 35.3333 106.417 35.3333Z" fill="#7E7284"/>
<path d="M108.692 41.75H41.2666V97.7917H108.692V41.75Z" fill="#2C1338"/>
<path d="M74.9834 40.225C75.7796 40.225 76.4251 39.5796 76.4251 38.7833C76.4251 37.9871 75.7796 37.3417 74.9834 37.3417C74.1872 37.3417 73.5417 37.9871 73.5417 38.7833C73.5417 39.5796 74.1872 40.225 74.9834 40.225Z" fill="#54465E"/>
<path d="M74.9666 76.6917C80.3606 76.6917 84.7333 72.319 84.7333 66.925C84.7333 61.531 80.3606 57.1583 74.9666 57.1583C69.5726 57.1583 65.2 61.531 65.2 66.925C65.2 72.319 69.5726 76.6917 74.9666 76.6917Z" fill="#E57CD8"/>
<path d="M49.6001 82.5583L53.1668 100.892C53.3408 101.79 53.8218 102.599 54.5272 103.182C55.2327 103.764 56.1187 104.083 57.0334 104.083C57.5706 104.084 58.1022 103.975 58.5957 103.763C59.0892 103.551 59.5342 103.241 59.9033 102.85C60.2724 102.46 60.5579 101.999 60.7422 101.494C60.9265 100.99 61.0058 100.453 60.9751 99.9167L60.3418 86.525L49.6001 82.5583Z" fill="#E6B26E"/>
<path d="M39.7166 85L43.7999 101.217C44.0024 102.022 44.4683 102.737 45.1236 103.247C45.7789 103.758 46.586 104.034 47.4166 104.033C47.95 104.032 48.4771 103.917 48.9622 103.696C49.4474 103.474 49.8795 103.151 50.2293 102.748C50.5791 102.346 50.8386 101.872 50.9902 101.361C51.1418 100.85 51.182 100.312 51.1082 99.7833L48.9249 84.2667L39.7166 85Z" fill="#E6B26E"/>
<path d="M37.825 85.75L41.3666 99.0833C41.5285 99.6705 41.5525 100.287 41.4366 100.885C41.3207 101.483 41.0681 102.046 40.6986 102.53C40.329 103.014 39.8525 103.406 39.3063 103.676C38.7601 103.945 38.159 104.085 37.55 104.083C36.7264 104.083 35.9233 103.826 35.2526 103.348C34.582 102.87 34.0771 102.195 33.8083 101.417L27.8167 83.9667L36.9333 82.9083L37.825 85.75Z" fill="#E6B26E"/>
<path d="M25.9918 83.7417L30.4418 95.9167C30.6071 96.3726 30.6757 96.858 30.6431 97.3418C30.6105 97.8257 30.4775 98.2975 30.2525 98.7272C30.0275 99.1568 29.7154 99.5348 29.3362 99.8372C28.957 100.14 28.519 100.36 28.0501 100.483C27.2678 100.687 26.4389 100.614 25.7048 100.275C24.9708 99.936 24.3771 99.3529 24.0251 98.625L16.8501 83.7417H25.9918Z" fill="#E6B26E"/>
<path d="M28.4918 66.6667C33.5781 66.6551 38.599 67.8127 43.1668 70.05L64.6751 80.6583C65.3185 80.9763 65.8919 81.4197 66.3615 81.9625C66.831 82.5053 67.1873 83.1364 67.4094 83.8189C67.6314 84.5014 67.7148 85.2214 67.6545 85.9366C67.5942 86.6517 67.3916 87.3476 67.0584 87.9833C66.4408 89.1729 65.401 90.0887 64.143 90.5512C62.8849 91.0137 61.4995 90.9895 60.2584 90.4833L52.3251 87.2333C50.7075 86.5661 48.9391 86.3501 47.2085 86.6083L43.4251 87.1667C40.0865 87.6583 36.6957 87.6835 33.3501 87.2417C30.1804 86.8253 26.9698 86.8253 23.8001 87.2417L21.3001 87.5667C18.931 87.8687 16.5342 87.2783 14.5764 85.9104C12.6186 84.5426 11.2398 82.4951 10.7085 80.1667C10.1978 77.9765 10.471 75.6765 11.4804 73.6669C12.4898 71.6572 14.1716 70.0648 16.2335 69.1667C20.1034 67.4969 24.277 66.6457 28.4918 66.6667Z" fill="#FFDE91"/>
<path d="M126.417 104.05H23.5833C23.0524 104.056 22.5349 104.218 22.095 104.516C21.655 104.813 21.3119 105.233 21.108 105.723C20.904 106.213 20.8483 106.753 20.9476 107.274C21.0469 107.796 21.2969 108.277 21.6667 108.658L26.3167 113.442C26.6868 113.825 27.1294 114.13 27.6186 114.34C28.1079 114.551 28.6341 114.662 29.1667 114.667H120.833C121.372 114.666 121.904 114.557 122.399 114.347C122.895 114.136 123.343 113.829 123.717 113.442L128.367 108.658C128.738 108.275 128.989 107.791 129.087 107.266C129.185 106.742 129.127 106.2 128.919 105.708C128.711 105.216 128.362 104.797 127.917 104.502C127.472 104.207 126.95 104.05 126.417 104.05Z" fill="#2C1338"/>
<path d="M100.4 82.5583L96.8333 100.892C96.6593 101.79 96.1783 102.599 95.4728 103.182C94.7674 103.764 93.8814 104.083 92.9666 104.083C92.4295 104.084 91.8979 103.975 91.4044 103.763C90.9109 103.551 90.4659 103.241 90.0968 102.85C89.7277 102.46 89.4422 101.999 89.2579 101.494C89.0736 100.99 88.9943 100.453 89.025 99.9167L89.6583 86.525L100.4 82.5583Z" fill="#E6B26E"/>
<path d="M110.283 85L106.2 101.217C105.997 102.022 105.532 102.737 104.876 103.247C104.221 103.758 103.414 104.034 102.583 104.033C102.05 104.032 101.523 103.917 101.038 103.696C100.552 103.474 100.12 103.151 99.7705 102.748C99.4207 102.346 99.1613 101.872 99.0097 101.361C98.8581 100.85 98.8178 100.312 98.8916 99.7833L101.075 84.2667L110.283 85Z" fill="#E6B26E"/>
<path d="M112.175 85.75L108.633 99.0833C108.471 99.6705 108.447 100.287 108.563 100.885C108.679 101.483 108.932 102.046 109.301 102.53C109.671 103.014 110.147 103.406 110.694 103.676C111.24 103.945 111.841 104.085 112.45 104.083C113.274 104.083 114.077 103.826 114.747 103.348C115.418 102.87 115.923 102.195 116.192 101.417L122.183 83.9667L113.067 82.9083L112.175 85.75Z" fill="#E6B26E"/>
<path d="M124.008 83.7417L119.558 95.9167C119.393 96.3726 119.324 96.858 119.357 97.3418C119.39 97.8257 119.523 98.2975 119.748 98.7272C119.973 99.1568 120.285 99.5348 120.664 99.8372C121.043 100.14 121.481 100.36 121.95 100.483C122.732 100.687 123.561 100.614 124.295 100.275C125.029 99.936 125.623 99.3529 125.975 98.625L133.15 83.7417H124.008Z" fill="#E6B26E"/>
<path d="M121.508 66.6667C116.419 66.6681 111.398 67.84 106.833 70.0917L85.3251 80.6583C84.6816 80.9763 84.1083 81.4197 83.6387 81.9625C83.1692 82.5053 82.8129 83.1364 82.5908 83.8189C82.3688 84.5014 82.2854 85.2214 82.3457 85.9366C82.4059 86.6517 82.6086 87.3476 82.9417 87.9833C83.5594 89.1729 84.5992 90.0887 85.8572 90.5512C87.1152 91.0137 88.5006 90.9895 89.7417 90.4833L97.6751 87.2333C99.2927 86.5661 101.061 86.3501 102.792 86.6083L106.575 87.1667C109.914 87.6583 113.304 87.6835 116.65 87.2417C119.82 86.8253 123.03 86.8253 126.2 87.2417L128.7 87.5667C131.07 87.8737 133.468 87.2877 135.43 85.9229C137.391 84.558 138.773 82.5119 139.308 80.1833C139.822 77.9887 139.549 75.6834 138.536 73.6698C137.523 71.6562 135.835 70.0624 133.767 69.1667C129.897 67.4969 125.723 66.6457 121.508 66.6667Z" fill="#FFDE91"/>
</g>
<defs>
<clipPath id="clip0_152_7366">
<rect width="150" height="150" fill="white"/>
</clipPath>
</defs>
</svg>
