<svg width="211" height="212" viewBox="0 0 211 212" fill="none" xmlns="http://www.w3.org/2000/svg">
<path fill-rule="evenodd" clip-rule="evenodd" d="M118.028 205.17C118 204.906 118.192 204.669 118.456 204.641C118.721 204.614 118.957 204.805 118.985 205.07L119.488 209.857C119.516 210.121 119.324 210.358 119.06 210.386C118.796 210.414 118.559 210.222 118.531 209.957L118.028 205.17Z" fill="#D5D0D7"/>
<path fill-rule="evenodd" clip-rule="evenodd" d="M143.461 198.725C143.353 198.482 143.462 198.198 143.705 198.09C143.948 197.981 144.232 198.091 144.34 198.334L146.298 202.731C146.406 202.974 146.297 203.258 146.054 203.366C145.811 203.474 145.527 203.365 145.419 203.122L143.461 198.725Z" fill="#D5D0D7"/>
<path fill-rule="evenodd" clip-rule="evenodd" d="M130.985 202.677C130.926 202.418 131.087 202.16 131.346 202.1C131.605 202.04 131.864 202.202 131.923 202.461L133.006 207.151C133.066 207.41 132.905 207.668 132.646 207.728C132.387 207.788 132.128 207.626 132.068 207.367L130.985 202.677Z" fill="#D5D0D7"/>
<path fill-rule="evenodd" clip-rule="evenodd" d="M165.871 185.336C165.711 185.124 165.753 184.822 165.965 184.662C166.178 184.502 166.48 184.544 166.64 184.756L169.536 188.601C169.696 188.813 169.654 189.115 169.442 189.275C169.229 189.435 168.928 189.392 168.768 189.18L165.871 185.336Z" fill="#D5D0D7"/>
<path fill-rule="evenodd" clip-rule="evenodd" d="M184.256 167.136C184.047 166.972 184.01 166.67 184.173 166.46C184.337 166.251 184.639 166.214 184.849 166.378L188.642 169.341C188.851 169.505 188.889 169.807 188.725 170.017C188.561 170.226 188.259 170.263 188.049 170.1L184.256 167.136Z" fill="#D5D0D7"/>
<path fill-rule="evenodd" clip-rule="evenodd" d="M176.024 177.204C175.839 177.013 175.844 176.708 176.035 176.524C176.227 176.339 176.531 176.344 176.716 176.535L180.06 179.998C180.244 180.189 180.239 180.494 180.048 180.678C179.857 180.863 179.552 180.858 179.367 180.667L176.024 177.204Z" fill="#D5D0D7"/>
<path fill-rule="evenodd" clip-rule="evenodd" d="M197.799 145.011C197.551 144.915 197.427 144.637 197.522 144.389C197.617 144.14 197.896 144.017 198.144 144.112L202.638 145.837C202.886 145.932 203.01 146.21 202.914 146.459C202.819 146.707 202.541 146.831 202.293 146.736L197.799 145.011Z" fill="#D5D0D7"/>
<path fill-rule="evenodd" clip-rule="evenodd" d="M204.566 119.442C204.302 119.41 204.114 119.17 204.147 118.906C204.179 118.642 204.419 118.455 204.683 118.487L209.461 119.074C209.725 119.106 209.912 119.346 209.88 119.61C209.848 119.874 209.607 120.061 209.343 120.029L204.566 119.442Z" fill="#D5D0D7"/>
<path fill-rule="evenodd" clip-rule="evenodd" d="M202.147 131.998C201.89 131.929 201.737 131.665 201.806 131.408C201.875 131.151 202.139 130.999 202.396 131.068L207.045 132.314C207.302 132.382 207.454 132.646 207.385 132.903C207.317 133.16 207.053 133.312 206.796 133.243L202.147 131.998Z" fill="#D5D0D7"/>
<path fill-rule="evenodd" clip-rule="evenodd" d="M204.699 93.3318C204.436 93.3688 204.192 93.1854 204.155 92.9221C204.118 92.6589 204.302 92.4155 204.565 92.3785L209.331 91.7086C209.595 91.6716 209.838 91.855 209.875 92.1182C209.912 92.3815 209.729 92.6249 209.465 92.6619L204.699 93.3318Z" fill="#D5D0D7"/>
<path fill-rule="evenodd" clip-rule="evenodd" d="M198.181 68.0327C197.938 68.1408 197.653 68.0316 197.545 67.7887C197.437 67.5459 197.546 67.2613 197.789 67.1532L202.186 65.1954C202.429 65.0873 202.714 65.1965 202.822 65.4394C202.93 65.6822 202.821 65.9667 202.578 66.0749L198.181 68.0327Z" fill="#D5D0D7"/>
<path fill-rule="evenodd" clip-rule="evenodd" d="M202.381 80.2108C202.124 80.2751 201.862 80.1181 201.798 79.8602C201.734 79.6022 201.891 79.341 202.149 79.2767L206.819 78.1122C207.077 78.0479 207.338 78.2049 207.402 78.4628C207.467 78.7208 207.31 78.982 207.052 79.0463L202.381 80.2108Z" fill="#D5D0D7"/>
<path fill-rule="evenodd" clip-rule="evenodd" d="M185.291 45.1728C185.07 45.3214 184.771 45.2633 184.623 45.0429C184.474 44.8225 184.532 44.5233 184.752 44.3747L188.743 41.683C188.963 41.5344 189.262 41.5925 189.411 41.8129C189.56 42.0333 189.502 42.3325 189.281 42.4811L185.291 45.1728Z" fill="#D5D0D7"/>
<path fill-rule="evenodd" clip-rule="evenodd" d="M166.636 26.444C166.472 26.6535 166.17 26.6907 165.96 26.527C165.751 26.3633 165.714 26.0608 165.877 25.8514L168.841 22.0584C169.004 21.8489 169.307 21.8117 169.516 21.9754C169.726 22.1391 169.763 22.4416 169.599 22.651L166.636 26.444Z" fill="#D5D0D7"/>
<path fill-rule="evenodd" clip-rule="evenodd" d="M176.698 35.1395C176.503 35.3208 176.199 35.3102 176.017 35.1158C175.836 34.9213 175.847 34.6168 176.041 34.4355L179.561 31.1527C179.756 30.9714 180.06 30.9821 180.242 31.1765C180.423 31.3709 180.412 31.6755 180.218 31.8568L176.698 35.1395Z" fill="#D5D0D7"/>
<path fill-rule="evenodd" clip-rule="evenodd" d="M144.033 13.43C143.925 13.6729 143.641 13.7821 143.398 13.674C143.155 13.5658 143.046 13.2813 143.154 13.0384L145.112 8.64119C145.22 8.39833 145.504 8.28911 145.747 8.39724C145.99 8.50536 146.099 8.78989 145.991 9.03274L144.033 13.43Z" fill="#D5D0D7"/>
<path fill-rule="evenodd" clip-rule="evenodd" d="M119.453 6.81614C119.435 7.08133 119.205 7.28127 118.939 7.26273C118.674 7.24419 118.474 7.01417 118.493 6.74898L118.829 1.94731C118.847 1.68212 119.077 1.48217 119.342 1.50072C119.608 1.51926 119.808 1.74927 119.789 2.01446L119.453 6.81614Z" fill="#D5D0D7"/>
<path fill-rule="evenodd" clip-rule="evenodd" d="M131.971 9.24494C131.911 9.50396 131.653 9.66546 131.394 9.60566C131.135 9.54586 130.973 9.28741 131.033 9.02838L132.116 4.33835C132.175 4.07932 132.434 3.91782 132.693 3.97762C132.952 4.03742 133.113 4.29588 133.054 4.5549L131.971 9.24494Z" fill="#D5D0D7"/>
<path fill-rule="evenodd" clip-rule="evenodd" d="M92.7992 205.17C92.827 204.906 92.6352 204.669 92.3708 204.641C92.1064 204.614 91.8696 204.805 91.8418 205.07L91.3386 209.857C91.3108 210.121 91.5026 210.358 91.767 210.386C92.0314 210.414 92.2682 210.222 92.296 209.957L92.7992 205.17Z" fill="#D5D0D7"/>
<path fill-rule="evenodd" clip-rule="evenodd" d="M67.3662 198.725C67.4743 198.482 67.3651 198.198 67.1222 198.09C66.8794 197.981 66.5948 198.091 66.4867 198.334L64.5289 202.731C64.4208 202.974 64.53 203.258 64.7729 203.366C65.0157 203.474 65.3002 203.365 65.4084 203.122L67.3662 198.725Z" fill="#D5D0D7"/>
<path fill-rule="evenodd" clip-rule="evenodd" d="M79.8416 202.677C79.9014 202.418 79.7399 202.16 79.4808 202.1C79.2218 202.04 78.9634 202.202 78.9036 202.461L77.8208 207.151C77.761 207.41 77.9225 207.668 78.1815 207.728C78.4405 207.788 78.699 207.626 78.7588 207.367L79.8416 202.677Z" fill="#D5D0D7"/>
<path fill-rule="evenodd" clip-rule="evenodd" d="M44.9564 185.336C45.1164 185.124 45.074 184.822 44.8617 184.662C44.6494 184.502 44.3476 184.544 44.1876 184.756L41.2908 188.601C41.1308 188.813 41.1732 189.115 41.3855 189.275C41.5978 189.435 41.8996 189.392 42.0596 189.18L44.9564 185.336Z" fill="#D5D0D7"/>
<path fill-rule="evenodd" clip-rule="evenodd" d="M26.5709 167.136C26.7804 166.972 26.8175 166.67 26.6538 166.46C26.4902 166.251 26.1877 166.214 25.9782 166.378L22.1852 169.341C21.9757 169.505 21.9386 169.807 22.1022 170.017C22.2659 170.226 22.5684 170.263 22.7779 170.1L26.5709 167.136Z" fill="#D5D0D7"/>
<path fill-rule="evenodd" clip-rule="evenodd" d="M34.8036 177.204C34.9882 177.013 34.9829 176.708 34.7917 176.524C34.6005 176.339 34.2957 176.344 34.1111 176.535L30.7674 179.998C30.5827 180.189 30.5881 180.494 30.7793 180.678C30.9705 180.863 31.2752 180.858 31.4599 180.667L34.8036 177.204Z" fill="#D5D0D7"/>
<path fill-rule="evenodd" clip-rule="evenodd" d="M13.0281 145.011C13.2763 144.915 13.4002 144.637 13.3049 144.389C13.2097 144.14 12.9313 144.017 12.6831 144.112L8.18938 145.837C7.9412 145.932 7.81724 146.21 7.91251 146.459C8.00778 146.707 8.2862 146.831 8.53438 146.736L13.0281 145.011Z" fill="#D5D0D7"/>
<path fill-rule="evenodd" clip-rule="evenodd" d="M6.26094 119.442C6.5248 119.41 6.71243 119.17 6.68003 118.906C6.64763 118.642 6.40747 118.455 6.14362 118.487L1.3661 119.074C1.10224 119.106 0.914606 119.346 0.947004 119.61C0.979401 119.874 1.21956 120.061 1.48342 120.029L6.26094 119.442Z" fill="#D5D0D7"/>
<path fill-rule="evenodd" clip-rule="evenodd" d="M8.68062 131.998C8.9374 131.929 9.08978 131.665 9.02098 131.408C8.95218 131.151 8.68824 130.999 8.43146 131.068L3.78207 132.314C3.52529 132.382 3.37291 132.646 3.44171 132.903C3.51052 133.16 3.77445 133.312 4.03123 133.243L8.68062 131.998Z" fill="#D5D0D7"/>
<path fill-rule="evenodd" clip-rule="evenodd" d="M6.12824 93.3318C6.39149 93.3688 6.63488 93.1854 6.67188 92.9221C6.70888 92.6589 6.52546 92.4155 6.26222 92.3785L1.49566 91.7086C1.23241 91.6716 0.989009 91.855 0.952011 92.1182C0.915014 92.3815 1.09843 92.6249 1.36168 92.6619L6.12824 93.3318Z" fill="#D5D0D7"/>
<path fill-rule="evenodd" clip-rule="evenodd" d="M12.6462 68.0327C12.8891 68.1408 13.1736 68.0316 13.2817 67.7887C13.3899 67.5459 13.2806 67.2613 13.0378 67.1532L8.64053 65.1954C8.39767 65.0873 8.11315 65.1965 8.00502 65.4394C7.8969 65.6822 8.00612 65.9667 8.24897 66.0749L12.6462 68.0327Z" fill="#D5D0D7"/>
<path fill-rule="evenodd" clip-rule="evenodd" d="M8.44543 80.2108C8.70337 80.2751 8.96461 80.1181 9.02892 79.8602C9.09323 79.6022 8.93626 79.341 8.67832 79.2767L4.0079 78.1122C3.74996 78.0479 3.48872 78.2049 3.42441 78.4628C3.3601 78.7208 3.51707 78.982 3.77501 79.0463L8.44543 80.2108Z" fill="#D5D0D7"/>
<path fill-rule="evenodd" clip-rule="evenodd" d="M25.5364 45.1728C25.7568 45.3214 26.056 45.2633 26.2046 45.0429C26.3533 44.8225 26.2951 44.5233 26.0748 44.3747L22.0843 41.683C21.8639 41.5344 21.5647 41.5925 21.4161 41.8129C21.2674 42.0333 21.3256 42.3325 21.5459 42.4811L25.5364 45.1728Z" fill="#D5D0D7"/>
<path fill-rule="evenodd" clip-rule="evenodd" d="M44.191 26.444C44.3547 26.6535 44.6572 26.6907 44.8667 26.527C45.0761 26.3633 45.1133 26.0608 44.9496 25.8514L41.9862 22.0584C41.8225 21.8489 41.52 21.8117 41.3106 21.9754C41.1011 22.1391 41.0639 22.4416 41.2276 22.651L44.191 26.444Z" fill="#D5D0D7"/>
<path fill-rule="evenodd" clip-rule="evenodd" d="M34.1292 35.1395C34.3236 35.3208 34.6282 35.3102 34.8095 35.1158C34.9908 34.9213 34.9802 34.6168 34.7857 34.4355L31.2654 31.1527C31.071 30.9714 30.7664 30.9821 30.5851 31.1765C30.4038 31.3709 30.4145 31.6755 30.6089 31.8568L34.1292 35.1395Z" fill="#D5D0D7"/>
<path fill-rule="evenodd" clip-rule="evenodd" d="M66.7938 13.43C66.9019 13.6729 67.1865 13.7821 67.4293 13.674C67.6722 13.5658 67.7814 13.2813 67.6733 13.0384L65.7155 8.64119C65.6073 8.39833 65.3228 8.28911 65.08 8.39724C64.8371 8.50536 64.7279 8.78989 64.836 9.03274L66.7938 13.43Z" fill="#D5D0D7"/>
<path fill-rule="evenodd" clip-rule="evenodd" d="M91.3738 6.81614C91.3924 7.08133 91.6224 7.28127 91.8876 7.26273C92.1528 7.24419 92.3527 7.01417 92.3342 6.74898L91.9984 1.94731C91.9799 1.68212 91.7498 1.48217 91.4847 1.50072C91.2195 1.51926 91.0195 1.74927 91.0381 2.01446L91.3738 6.81614Z" fill="#D5D0D7"/>
<path fill-rule="evenodd" clip-rule="evenodd" d="M78.8562 9.24494C78.916 9.50396 79.1745 9.66546 79.4335 9.60566C79.6925 9.54586 79.854 9.28741 79.7942 9.02838L78.7114 4.33835C78.6516 4.07932 78.3932 3.91782 78.1341 3.97762C77.8751 4.03742 77.7136 4.29588 77.7734 4.5549L78.8562 9.24494Z" fill="#D5D0D7"/>
<rect x="104.451" y="0.5" width="1.92536" height="5.77608" fill="#2C1338"/>
<path fill-rule="evenodd" clip-rule="evenodd" d="M53.0037 13.9454L51.4265 15.0498L54.7395 19.7813L56.3167 18.6769L53.0037 13.9454Z" fill="#2C1338"/>
<path fill-rule="evenodd" clip-rule="evenodd" d="M14.7839 52.4847L13.7923 54.1351L18.7434 57.11L19.735 55.4596L14.7839 52.4847Z" fill="#2C1338"/>
<path fill-rule="evenodd" clip-rule="evenodd" d="M0 104.951L0 106.876H5.77608V104.951H0Z" fill="#E87161"/>
<path fill-rule="evenodd" clip-rule="evenodd" d="M19.2537 156.625L18.205 155.01L13.3608 158.156L14.4094 159.771L19.2537 156.625Z" fill="#2C1338"/>
<path fill-rule="evenodd" clip-rule="evenodd" d="M56.3168 192.555L54.6494 191.592L51.7613 196.594L53.4287 197.557L56.3168 192.555Z" fill="#2C1338"/>
<rect width="1.92536" height="5.77608" transform="matrix(-1 0 0 1 106.376 205.551)" fill="#2C1338"/>
<path fill-rule="evenodd" clip-rule="evenodd" d="M154.51 192.555L156.178 191.592L159.066 196.594L157.398 197.557L154.51 192.555Z" fill="#2C1338"/>
<path fill-rule="evenodd" clip-rule="evenodd" d="M191.573 156.625L192.622 155.01L197.466 158.156L196.418 159.771L191.573 156.625Z" fill="#2C1338"/>
<path fill-rule="evenodd" clip-rule="evenodd" d="M210.827 104.951V106.876H205.051V104.951H210.827Z" fill="#2C1338"/>
<path fill-rule="evenodd" clip-rule="evenodd" d="M196.043 52.4847L197.035 54.1351L192.084 57.11L191.092 55.4596L196.043 52.4847Z" fill="#2C1338"/>
<path fill-rule="evenodd" clip-rule="evenodd" d="M157.823 13.9454L159.4 15.0498L156.087 19.7813L154.51 18.6769L157.823 13.9454Z" fill="#2C1338"/>
</svg>
