<svg width="37" height="40" viewBox="0 0 37 40" fill="none" xmlns="http://www.w3.org/2000/svg">
<path fill-rule="evenodd" clip-rule="evenodd" d="M15.0686 0.474609C17.8038 0.474609 20.0207 2.88441 20.0207 5.85763C20.0207 6.48565 19.9217 7.09034 19.7401 7.65197H26.6219C28.4443 7.65197 29.9234 9.2579 29.9234 11.2406V18.723C30.4384 18.5257 30.9947 18.418 31.5741 18.418C34.3077 18.418 36.5262 20.8278 36.5262 23.801C36.5262 26.7725 34.3093 29.184 31.5741 29.184C30.9963 29.184 30.44 29.0764 29.9234 28.8772V36.3596C29.9234 38.3424 28.446 39.9483 26.6219 39.9483H19.7384C19.92 39.3867 20.0191 38.782 20.0191 38.1539C20.0191 35.1807 17.8038 32.7709 15.0686 32.7709C12.3333 32.7709 10.1164 35.1807 10.1164 38.1539C10.1164 38.782 10.2154 39.3867 10.3987 39.9483H3.51519C1.69114 39.9483 0.213751 38.3424 0.213751 36.3596L0.210449 28.8754C0.727124 29.0746 1.28342 29.1823 1.86447 29.1823C4.59806 29.1823 6.81662 26.7725 6.81662 23.7992C6.81662 20.8278 4.59806 18.4162 1.86447 18.4162C1.28342 18.4162 0.727124 18.5257 0.210449 18.7248L0.213751 11.2406C0.213751 9.2579 1.69114 7.65197 3.51519 7.65197H10.3987C10.2171 7.09034 10.1181 6.48565 10.1181 5.85763C10.1181 2.88441 12.3333 0.474609 15.0702 0.474609H15.0686Z" fill="#412A4C"/>
</svg>
