<svg width="146" height="28" viewBox="0 0 146 28" fill="none" xmlns="http://www.w3.org/2000/svg">
<g clip-path="url(#clip0_1162_23747)">
<path d="M7.09806 7.19531C9.18618 7.19531 10.9274 8.27146 11.7408 9.43363V7.48712H14.9302V22.0134H12.6467C12.4065 22.0134 12.176 21.9178 12.0061 21.7476C11.8362 21.5774 11.7408 21.3466 11.7408 21.1059V20.0719C10.9274 21.2341 9.18618 22.3086 7.09806 22.3086C3.1239 22.3052 0.10791 18.9064 0.10791 14.7503C0.10791 10.5941 3.1239 7.19531 7.09806 7.19531ZM7.67903 10.1016C5.09582 10.1016 3.35628 12.1442 3.35628 14.7503C3.35628 17.3563 5.09582 19.3972 7.67903 19.3972C10.2622 19.3972 12.0001 17.3731 12.0001 14.7503C12.0001 12.1274 10.2606 10.1016 7.67903 10.1016Z" fill="black"/>
<path d="M18.554 7.48712H21.7451V9.4623C22.6157 8.01001 24.271 7.19531 26.1537 7.19531C29.5216 7.19531 31.694 9.57869 31.694 13.2676V22.0117H29.4105C29.1701 22.0117 28.9394 21.9161 28.7693 21.746C28.5991 21.5759 28.5033 21.3451 28.5028 21.1042V13.7922C28.5028 11.4965 27.3426 10.1016 25.4869 10.1016C23.3701 10.1016 21.7451 11.758 21.7451 14.8666V22.0134H19.4616C19.3425 22.0136 19.2245 21.9903 19.1144 21.9448C19.0043 21.8993 18.9042 21.8325 18.8199 21.7482C18.7356 21.6639 18.6687 21.5638 18.6231 21.4536C18.5774 21.3434 18.554 21.2252 18.554 21.1059V7.48712Z" fill="black"/>
<path d="M41.2099 7.19593C43.298 7.19593 45.0392 8.27208 45.8509 9.43425V0.224609H49.0504V22.014H46.7586C46.6394 22.0142 46.5214 21.9909 46.4113 21.9454C46.3012 21.8999 46.2011 21.8331 46.1168 21.7488C46.0325 21.6645 45.9657 21.5644 45.92 21.4542C45.8744 21.344 45.8509 21.2258 45.8509 21.1065V20.0726C45.0392 21.2347 43.298 22.3092 41.2099 22.3092C37.2357 22.3092 34.2197 18.9104 34.2197 14.7542C34.2197 10.5981 37.2357 7.19931 41.2099 7.19931M41.7908 10.1056C39.2093 10.1056 37.4681 12.1398 37.4681 14.7542C37.4681 17.3687 39.2093 19.3979 41.7908 19.3979C44.3724 19.3979 46.1119 17.3738 46.1119 14.7509C46.1119 12.128 44.3724 10.1022 41.7908 10.1022" fill="black"/>
<path d="M52.666 7.48674H55.8571V10.0725C56.1361 9.27704 56.6538 8.58744 57.3394 8.09824C58.0249 7.60905 58.8448 7.34419 59.6865 7.33999C60.1048 7.33711 60.5223 7.37667 60.9326 7.45806V10.7405C60.4188 10.5669 59.8801 10.4786 59.3379 10.479C57.5108 10.479 55.8571 12.019 55.8571 14.9253V22.0096H53.5737C53.4546 22.0099 53.3366 21.9865 53.2265 21.941C53.1163 21.8955 53.0163 21.8287 52.932 21.7444C52.8477 21.6601 52.7808 21.56 52.7351 21.4498C52.6895 21.3396 52.666 21.2215 52.666 21.1022V7.48674Z" fill="black"/>
<path d="M69.5377 22.3055C65.2436 22.3055 61.938 18.964 61.938 14.7522C61.938 10.5404 65.2436 7.19727 69.5377 7.19727C73.8319 7.19727 77.1375 10.5387 77.1375 14.7522C77.1375 18.9657 73.8302 22.3055 69.5377 22.3055ZM69.5377 19.3418C72.0906 19.3418 73.8891 17.3363 73.8891 14.7522C73.8891 12.1681 72.0906 10.1609 69.5377 10.1609C66.9562 10.1609 65.1594 12.1664 65.1594 14.7522C65.1594 17.338 66.9579 19.3418 69.5377 19.3418Z" fill="black"/>
<path d="M81.3187 4.31968C80.7508 4.31614 80.2072 4.0886 79.8056 3.68637C79.404 3.28413 79.1769 2.7396 79.1733 2.17077C79.1826 1.60622 79.4124 1.06781 79.8135 0.671088C80.2146 0.27437 80.755 0.0509702 81.3187 0.0488389C81.5972 0.0479478 81.873 0.102225 82.1305 0.208546C82.3879 0.314867 82.6218 0.471133 82.8187 0.66835C83.0155 0.865567 83.1716 1.09984 83.2777 1.35769C83.3838 1.61553 83.438 1.89186 83.4371 2.17077C83.4409 2.45175 83.3889 2.73068 83.2842 2.99135C83.1794 3.25202 83.0239 3.48922 82.8268 3.68918C82.6297 3.88913 82.3948 4.04784 82.1359 4.15608C81.877 4.26432 81.5993 4.31993 81.3187 4.31968ZM79.724 7.48739H82.9134V22.0153H80.6317C80.3909 22.0153 80.1601 21.9196 79.9898 21.7491C79.8196 21.5786 79.724 21.3473 79.724 21.1062V7.48739Z" fill="black"/>
<path d="M92.5273 7.19593C94.6171 7.19593 96.3566 8.27208 97.17 9.43425V0.224609H100.37V22.014H98.0759C97.8356 22.014 97.6052 21.9184 97.4353 21.7482C97.2654 21.578 97.17 21.3472 97.17 21.1065V20.0726C96.3566 21.2347 94.6171 22.3092 92.5273 22.3092C88.5548 22.3092 85.5371 18.9104 85.5371 14.7542C85.5371 10.5981 88.5548 7.19931 92.5273 7.19931M93.1082 10.1056C90.5267 10.1056 88.7855 12.1398 88.7855 14.7542C88.7855 17.3687 90.5267 19.3979 93.1082 19.3979C95.6897 19.3979 97.431 17.3738 97.431 14.7509C97.431 12.128 95.6897 10.1022 93.1082 10.1022" fill="black"/>
<path d="M135.571 16.5299C135.253 16.5299 134.941 16.4352 134.676 16.2578C134.411 16.0804 134.204 15.8283 134.082 15.5334C133.96 15.2384 133.929 14.9138 133.991 14.6007C134.053 14.2876 134.206 14 134.432 13.7742C134.657 13.5485 134.944 13.3947 135.257 13.3324C135.57 13.2702 135.894 13.3021 136.188 13.4243C136.483 13.5465 136.734 13.7534 136.911 14.0188C137.088 14.2843 137.183 14.5964 137.183 14.9156C137.182 15.3436 137.013 15.7539 136.71 16.0566C136.408 16.3592 135.999 16.5294 135.571 16.5299ZM117.767 16.5299C117.448 16.5302 117.136 16.4358 116.871 16.2586C116.606 16.0815 116.399 15.8295 116.277 15.5345C116.154 15.2396 116.122 14.915 116.184 14.6018C116.246 14.2885 116.4 14.0007 116.625 13.7748C116.85 13.5489 117.137 13.395 117.45 13.3326C117.763 13.2701 118.087 13.302 118.381 13.4241C118.676 13.5463 118.928 13.7532 119.105 14.0186C119.282 14.2841 119.377 14.5963 119.377 14.9156C119.376 15.3433 119.207 15.7534 118.905 16.056C118.603 16.3585 118.194 16.529 117.767 16.5299ZM136.149 6.8125L139.369 1.226C139.44 1.07334 139.451 0.899685 139.4 0.739115C139.35 0.578544 139.241 0.442662 139.096 0.358146C138.951 0.27363 138.779 0.246586 138.615 0.282323C138.451 0.31806 138.306 0.413997 138.208 0.551298L134.948 6.21202C132.344 5.04233 129.523 4.43763 126.669 4.43763C123.815 4.43763 120.994 5.04233 118.39 6.21202L115.13 0.556359C115.09 0.471325 115.034 0.395462 114.963 0.33361C114.893 0.271759 114.81 0.225277 114.721 0.19713C114.632 0.168983 114.538 0.159789 114.445 0.170135C114.351 0.180481 114.262 0.21014 114.181 0.257219C114.1 0.304298 114.029 0.367763 113.974 0.443566C113.919 0.519369 113.88 0.605844 113.861 0.697475C113.841 0.789107 113.84 0.883881 113.859 0.975753C113.878 1.06762 113.915 1.15457 113.969 1.23106L117.189 6.81756C114.408 8.33405 112.049 10.5223 110.327 13.1837C108.604 15.8451 107.573 18.8953 107.326 22.0573H146.012C145.766 18.8944 144.735 15.8432 143.012 13.1809C141.29 10.5185 138.931 8.32945 136.149 6.8125Z" fill="black"/>
</g>
<defs>
<clipPath id="clip0_1162_23747">
<rect width="146" height="28" fill="white"/>
</clipPath>
</defs>
</svg>
