<svg width="15" height="18" viewBox="0 0 15 18" fill="none" xmlns="http://www.w3.org/2000/svg">
<path d="M12.5174 9.67C12.5257 8.98909 12.7056 8.32127 13.0405 7.72835C13.3754 7.13544 13.8545 6.6366 14.4334 6.278C14.0675 5.75161 13.5837 5.31805 13.0204 5.01194C12.4571 4.70583 11.8301 4.53566 11.1894 4.515C9.82441 4.371 8.50141 5.335 7.80541 5.335C7.09641 5.335 6.02541 4.529 4.87241 4.553C4.12522 4.5779 3.3973 4.79641 2.75993 5.18714C2.12256 5.57788 1.59758 6.12743 1.23641 6.782C-0.334594 9.517 0.837406 13.538 2.34341 15.749C3.09641 16.832 3.97741 18.042 5.12941 17.999C6.25641 17.952 6.67741 17.276 8.03941 17.276C9.38641 17.276 9.78141 17.999 10.9574 17.972C12.1674 17.952 12.9294 16.884 13.6564 15.791C14.198 15.0187 14.6144 14.1659 14.8904 13.264C14.1863 12.9633 13.586 12.4623 13.1642 11.8234C12.7423 11.1844 12.5174 10.4357 12.5174 9.67ZM10.2324 2.844C10.5706 2.45634 10.8282 2.00519 10.9901 1.51688C11.152 1.02858 11.215 0.512919 11.1754 0C10.1353 0.10165 9.16907 0.582974 8.46141 1.352C8.12313 1.7193 7.86291 2.15143 7.69653 2.62223C7.53014 3.09304 7.46104 3.59271 7.49341 4.091C8.01371 4.09832 8.52918 3.9903 9.00276 3.77469C9.47635 3.55908 9.89629 3.24123 10.2324 2.844Z" fill="#412A4C"/>
</svg>
