<svg width="180" height="180" viewBox="0 0 180 180" fill="none" xmlns="http://www.w3.org/2000/svg">
<circle cx="48" cy="151.84" r="13" fill="#E889DC"/>
<path fill-rule="evenodd" clip-rule="evenodd" d="M95.3144 86.3208C98.359 87.8894 99.5462 91.6472 98.0131 94.623L94.8638 100.737C106.131 109.769 109.88 125.751 103.013 139.079L100.164 144.608C98.5909 147.661 97.2821 152.897 97.241 156.291L97.0544 171.714C97.0133 175.113 94.4995 176.59 91.4295 175.008L25.352 140.964C22.2866 139.385 22.0299 136.475 24.7698 134.471L37.2198 125.367C39.9637 123.361 43.4318 119.32 45.0367 116.205L47.8854 110.676C54.7456 97.3609 69.9556 91.1415 83.8327 95.0574L86.9876 88.9424C88.4307 86.1414 91.73 84.9198 94.6486 86.0243L95.3144 86.3208Z" fill="#EDA3E4"/>
<path d="M81.4904 48.1391C81.8844 47.5081 82.4012 46.9616 83.0108 46.5316L109.193 21.5696L114.654 41.7379L89.0323 56.0167C87.8334 56.6707 86.4344 56.8693 85.0952 56.5756C83.7561 56.282 82.568 55.516 81.7519 54.42C81.3067 53.8201 80.9858 53.1386 80.808 52.4154C80.6301 51.6922 80.5989 50.9417 80.7161 50.2075C80.8332 49.4733 81.0964 48.7702 81.4904 48.1391Z" fill="#A85D42"/>
<path d="M81.5777 30.3863C82.1894 29.9628 82.8803 29.6657 83.6104 29.5122L111.708 21.5687L114.565 37.6407L85.3836 40.6065C84.0237 40.7323 82.6604 40.3606 81.547 39.5607C80.4337 38.7607 79.6461 37.5869 79.3306 36.2573C79.1593 35.5301 79.1346 34.7773 79.2577 34.0428C79.3808 33.3083 79.6493 32.6067 80.0476 31.979C80.4459 31.3512 80.966 30.8098 81.5777 30.3863Z" fill="#A85D42"/>
<path d="M91.2813 16.243C92.0223 16.1758 92.7699 16.2577 93.4808 16.4837L129.44 21.3981L116.414 38.8072L89.5583 27.0118C88.313 26.4513 87.3096 25.4563 86.7349 24.2116C86.1601 22.967 86.053 21.5574 86.4335 20.245C86.6427 19.5278 86.992 18.8605 87.461 18.282C87.93 17.7034 88.5093 17.2252 89.1652 16.8751C89.8211 16.5251 90.5404 16.3102 91.2813 16.243Z" fill="#A85D42"/>
<path d="M112.848 28.2548C114.006 25.5451 117.244 24.4196 119.833 25.8271L135.189 34.1748C137.833 35.6122 138.617 39.0425 136.861 41.4861L106.097 84.2818L97.4565 100.254C96.9367 101.215 95.7423 101.581 94.7735 101.076L83.8816 95.4028C82.8753 94.8787 82.5061 93.6234 83.0683 92.6379L92.0819 76.8404L112.848 28.2548Z" fill="#564260"/>
<path d="M94.9428 73.5426C88.8853 77.2454 85.3027 72.7043 86.56 68.513C87.3982 64.7413 96.857 33.5239 99.134 30.7917C103.744 25.2594 113.7 19.4732 117.157 19.4739C120.51 19.4746 133.503 16.1216 146.077 19.4747C158.651 22.8278 160.942 37.403 155.493 46.2048C150.044 55.0067 145.209 54.0743 137.051 61.2936C133.472 64.4606 128.893 69.2572 125.12 74.7059C121.348 80.1547 116.319 74.6777 116.319 71.8661C116.319 67.8398 123.863 55.1001 125.12 51.747C126.378 48.3939 113.609 46.3926 111.513 47.65C107.322 50.1649 101 69.8399 94.9428 73.5426Z" fill="#CD9460"/>
</svg>
