<svg width="180" height="180" viewBox="0 0 180 180" fill="none" xmlns="http://www.w3.org/2000/svg">
<path fill-rule="evenodd" clip-rule="evenodd" d="M76.8516 42.2075C77.2986 43.126 76.2336 44.3261 75.269 43.99C74.1954 43.616 73.0979 43.3039 71.9814 43.0563C67.0184 41.956 61.8541 42.1698 56.9991 43.6768C56.7461 43.7556 56.635 44.0518 56.7779 44.275C59.0338 47.798 62.0323 50.7884 65.5658 53.0357C68.3225 54.7888 71.3507 56.0552 74.5181 56.7881C75.234 56.9537 75.5836 57.7993 75.2267 58.4417C74.9573 58.9268 74.7154 59.428 74.5026 59.943C74.0032 61.1489 73.6756 62.4189 73.5297 63.7159C73.3016 65.6752 73.4778 67.6604 74.0475 69.5489C74.6172 71.4373 75.5683 73.1888 76.8418 74.695C78.1154 76.2013 79.6845 77.4302 81.4519 78.3059C83.2194 79.1816 85.1478 79.6854 87.1177 79.7861C87.6646 79.814 88.2115 79.8108 88.7558 79.7767C88.862 79.77 88.9686 79.7791 89.0722 79.8038C89.3416 79.8679 89.6132 79.9244 89.8865 79.973C91.8286 80.3185 93.8208 80.2619 95.7401 79.8067C97.6593 79.3515 99.4648 78.5074 101.045 77.3266C102.625 76.1459 103.946 74.6535 104.926 72.9418C105.907 71.2302 106.525 69.3356 106.744 67.3753C106.963 65.4149 106.778 63.4306 106.199 61.5448C105.992 60.8704 105.736 60.2137 105.435 59.5796C105.111 58.8984 105.542 58.0524 106.291 57.9556C109.616 57.5255 112.845 56.5161 115.83 54.9685C119.045 53.3019 121.912 51.0445 124.284 48.3178C124.682 47.8603 124.556 47.1589 124.023 46.869C123.198 46.4197 122.35 46.0121 121.483 45.648C116.778 43.7125 111.666 42.9749 106.605 43.5012C106.107 43.553 105.746 43.0072 105.987 42.5685C106.465 41.7011 106.898 40.8077 107.285 39.8918C108.694 36.5563 109.458 32.9878 109.542 29.3747C109.556 28.7685 109.011 28.3093 108.416 28.4264C107.494 28.6079 106.581 28.8359 105.681 29.1095C100.825 30.6258 96.4201 33.3235 92.8625 36.9609C92.2222 37.6156 91.6129 38.2971 91.0361 39.003C90.5551 39.5914 89.6046 39.5004 89.2423 38.8323C88.4888 37.4428 87.621 36.1118 86.6451 34.8537C83.5293 30.837 79.4192 27.703 74.721 25.7614C74.476 25.6604 74.2013 25.8173 74.1687 26.0804C73.6542 30.232 74.0512 34.4482 75.3346 38.4342C75.7518 39.7298 76.2592 40.9905 76.8516 42.2075Z" fill="#412A4C"/>
<path fill-rule="evenodd" clip-rule="evenodd" d="M159 107.864C159 103.691 162.5 99.733 162.5 95.5603V93.8863C162.5 72.3888 144.682 55.1716 123.197 55.9087L94 56.9103L62.766 55.8692C41.2949 55.1535 23.5 72.3651 23.5 93.8481V95.5603C23.5 100.216 28 104.625 28 109.281V110.267C28 135.358 48.9486 155.369 74.0131 154.221L93.5 153.328L112.987 154.221C138.051 155.369 159 135.358 159 110.267V107.864Z" fill="#E889DC"/>
<path d="M95.2321 91.3301C94.4622 92.6634 92.5377 92.6634 91.7679 91.3301L86.1388 81.5801C85.369 80.2467 86.3312 78.5801 87.8708 78.5801L99.1292 78.5801C100.669 78.5801 101.631 80.2467 100.861 81.5801L95.2321 91.3301Z" fill="#412A4C"/>
<mask id="mask0_1409_24317" style="mask-type:alpha" maskUnits="userSpaceOnUse" x="14" y="103" width="152" height="44">
<rect x="165.5" y="146.562" width="151" height="43" transform="rotate(-180 165.5 146.562)" fill="#D9D9D9"/>
</mask>
<g mask="url(#mask0_1409_24317)">
<path d="M147.379 122.535L147.379 76.0898C147.379 74.5656 146.144 73.3301 144.62 73.3301C143.096 73.3301 141.86 74.5656 141.86 76.0898L141.86 122.535C141.86 124.059 143.096 125.295 144.62 125.295C146.144 125.295 147.379 124.059 147.379 122.535Z" fill="#412A4C"/>
<path d="M135.969 111.895L135.969 86.7284C135.969 85.2043 134.733 83.9687 133.209 83.9687C131.685 83.9687 130.45 85.2043 130.45 86.7284L130.45 111.895C130.45 113.419 131.685 114.655 133.209 114.655C134.733 114.655 135.969 113.419 135.969 111.895Z" fill="#412A4C"/>
<path d="M124.557 111.895L124.557 86.7284C124.557 85.2043 123.321 83.9687 121.797 83.9687C120.273 83.9687 119.038 85.2043 119.038 86.7284L119.038 111.895C119.038 113.419 120.273 114.655 121.797 114.655C123.321 114.655 124.557 113.419 124.557 111.895Z" fill="#412A4C"/>
<path d="M113.006 122.535L113.006 76.0898C113.006 74.5656 111.77 73.3301 110.246 73.3301C108.722 73.3301 107.487 74.5656 107.487 76.0898L107.487 122.535C107.487 124.059 108.722 125.295 110.246 125.295C111.77 125.295 113.006 124.059 113.006 122.535Z" fill="#412A4C"/>
<path d="M101.594 111.895L101.594 86.7284C101.594 85.2043 100.358 83.9687 98.8338 83.9687C97.3097 83.9687 96.0742 85.2043 96.0742 86.7284L96.0742 111.895C96.0742 113.419 97.3097 114.655 98.8338 114.655C100.358 114.655 101.594 113.419 101.594 111.895Z" fill="#412A4C"/>
<path d="M90.1814 111.895L90.1814 86.7284C90.1814 85.2043 88.9459 83.9687 87.4217 83.9687C85.8976 83.9687 84.6621 85.2043 84.6621 86.7284L84.6621 111.895C84.6621 113.419 85.8976 114.655 87.4217 114.655C88.9459 114.655 90.1814 113.419 90.1814 111.895Z" fill="#412A4C"/>
<path d="M78.6321 122.535L78.6321 76.0898C78.6321 74.5656 77.3965 73.3301 75.8724 73.3301C74.3483 73.3301 73.1128 74.5656 73.1128 76.0898L73.1128 122.535C73.1128 124.059 74.3483 125.295 75.8724 125.295C77.3965 125.295 78.6321 124.059 78.6321 122.535Z" fill="#412A4C"/>
<path d="M67.22 111.895L67.22 86.7284C67.22 85.2043 65.9844 83.9687 64.4603 83.9687C62.9362 83.9687 61.7007 85.2043 61.7007 86.7284L61.7007 111.895C61.7007 113.419 62.9362 114.655 64.4603 114.655C65.9844 114.655 67.22 113.419 67.22 111.895Z" fill="#412A4C"/>
<path d="M55.8079 111.895L55.8079 86.7284C55.8079 85.2043 54.5723 83.9687 53.0482 83.9687C51.5241 83.9687 50.2886 85.2043 50.2886 86.7284L50.2886 111.895C50.2886 113.419 51.5241 114.655 53.0482 114.655C54.5723 114.655 55.8079 113.419 55.8079 111.895Z" fill="#412A4C"/>
<path d="M44.2651 122.535L44.2651 76.0898C44.2651 74.5656 43.0296 73.3301 41.5055 73.3301C39.9813 73.3301 38.7458 74.5656 38.7458 76.0898L38.7458 122.535C38.7458 124.059 39.9813 125.295 41.5055 125.295C43.0296 125.295 44.2651 124.059 44.2651 122.535Z" fill="#412A4C"/>
</g>
</svg>
