<svg width="180" height="180" viewBox="0 0 180 180" fill="none" xmlns="http://www.w3.org/2000/svg">
<path fill-rule="evenodd" clip-rule="evenodd" d="M21.4767 40.3613C15.1383 40.3613 10 45.4996 10 51.838V101.977C10 103.081 10.8954 103.977 12 103.977H71.9724C73.077 103.977 73.9724 103.081 73.9724 101.977V87.0532C73.9724 85.6965 75.3034 84.731 76.65 84.896C77.2425 84.9686 77.8471 85.0061 78.4614 85.0061C85.8992 85.0061 91.9288 79.5097 91.9288 72.7295C91.9288 65.9493 85.8992 60.4528 78.4614 60.4528C77.8471 60.4528 77.2424 60.4903 76.65 60.5629C75.3034 60.728 73.9724 59.7624 73.9724 58.4057V42.3613C73.9724 41.2568 73.077 40.3613 71.9724 40.3613H21.4767Z" fill="#C0B8C3"/>
<path fill-rule="evenodd" clip-rule="evenodd" d="M10 155.148C10 161.487 15.1383 166.625 21.4767 166.625H71.6152C72.7198 166.625 73.6152 165.73 73.6152 164.625V104.652C73.6152 103.548 72.7198 102.652 71.6152 102.652H56.6894C55.3328 102.652 54.3673 101.321 54.5322 99.9749C54.6047 99.3827 54.6422 98.7783 54.6422 98.1643C54.6422 90.7262 49.1459 84.6964 42.3659 84.6964C35.586 84.6964 30.0897 90.7262 30.0897 98.1643C30.0897 98.7783 30.1272 99.3827 30.1997 99.9749C30.3646 101.321 29.3991 102.652 28.0425 102.652H12C10.8954 102.652 10 103.548 10 104.652L10 155.148Z" fill="#412A4C"/>
<path fill-rule="evenodd" clip-rule="evenodd" d="M136.99 155.148C136.99 161.487 131.852 166.625 125.514 166.625H75.0181C73.9135 166.625 73.0181 165.73 73.0181 164.625V148.583C73.0181 147.227 71.6871 146.261 70.3405 146.426C69.748 146.499 69.1434 146.536 68.5291 146.536C61.0912 146.536 55.0616 141.04 55.0616 134.26C55.0616 127.479 61.0912 121.983 68.5291 121.983C69.1434 121.983 69.748 122.02 70.3405 122.093C71.6871 122.258 73.0181 121.293 73.0181 119.936V105.01C73.0181 103.905 73.9135 103.01 75.0181 103.01H90.4171C91.9269 103.01 92.9235 104.648 92.5486 106.11C92.2551 107.255 92.0983 108.461 92.0983 109.707C92.0983 117.104 97.6254 123.1 104.443 123.1C111.262 123.1 116.789 117.104 116.789 109.707C116.789 108.461 116.632 107.255 116.338 106.11C115.963 104.648 116.96 103.01 118.47 103.01H134.99C136.095 103.01 136.99 103.905 136.99 105.01V155.148Z" fill="#C0B8C3"/>
<path d="M120.007 99.7335C126.57 101.488 133.445 97.1188 135.364 89.9738C135.77 88.4609 135.921 86.9449 135.845 85.4782L154.111 90.3624C155.135 90.6363 156.189 90.0298 156.464 89.009L169.624 39.9961C171.194 34.1485 167.709 28.1361 161.841 26.567L112.746 13.4388C111.721 13.1649 110.667 13.7714 110.393 14.7922L106.075 30.8734C105.702 32.2633 106.965 33.5809 108.41 33.5829C109.642 33.5846 110.903 33.7458 112.161 34.0823C119.321 35.9968 123.699 42.8582 121.94 49.4079C120.182 55.9575 112.952 59.715 105.793 57.8006C104.537 57.4649 103.367 56.9771 102.301 56.3656C101.047 55.6464 99.2845 56.1632 98.9104 57.5563L94.8839 72.5526C94.6108 73.5698 95.2159 74.614 96.2367 74.887L113.433 79.4851C112.632 80.7174 112.003 82.1058 111.597 83.6187C109.679 90.7637 113.444 97.9786 120.007 99.7335Z" fill="#E57CD8"/>
</svg>
