<svg width="180" height="180" viewBox="0 0 180 180" fill="none" xmlns="http://www.w3.org/2000/svg">
<path d="M131.92 25.5H48.0801C43.4078 25.5 39.6201 29.2877 39.6201 33.96V98.98C39.6201 103.652 43.4078 107.44 48.0801 107.44H131.92C136.592 107.44 140.38 103.652 140.38 98.98V33.96C140.38 29.2877 136.592 25.5 131.92 25.5Z" fill="#FFFCF4"/>
<path d="M140.38 37.26H39.6201V31.38C39.6201 30.6078 39.7722 29.8432 40.0677 29.1298C40.3632 28.4164 40.7963 27.7682 41.3423 27.2222C41.8883 26.6762 42.5365 26.2431 43.2499 25.9476C43.9633 25.6521 44.7279 25.5 45.5001 25.5H134.5C136.06 25.5 137.555 26.1195 138.658 27.2222C139.761 28.3249 140.38 29.8205 140.38 31.38V37.26Z" fill="#7E7284"/>
<path d="M45.48 33.3994C46.5956 33.3994 47.5 32.495 47.5 31.3794C47.5 30.2638 46.5956 29.3594 45.48 29.3594C44.3643 29.3594 43.46 30.2638 43.46 31.3794C43.46 32.495 44.3643 33.3994 45.48 33.3994Z" fill="#E57CD8"/>
<path d="M52.4299 33.3994C53.5455 33.3994 54.4499 32.495 54.4499 31.3794C54.4499 30.2638 53.5455 29.3594 52.4299 29.3594C51.3143 29.3594 50.4099 30.2638 50.4099 31.3794C50.4099 32.495 51.3143 33.3994 52.4299 33.3994Z" fill="#FFDE91"/>
<path d="M59.1401 33.3994C60.2557 33.3994 61.1601 32.495 61.1601 31.3794C61.1601 30.2638 60.2557 29.3594 59.1401 29.3594C58.0245 29.3594 57.1201 30.2638 57.1201 31.3794C57.1201 32.495 58.0245 33.3994 59.1401 33.3994Z" fill="#434244"/>
<path d="M89.1499 85.0693C97.031 85.0693 103.42 78.6804 103.42 70.7993C103.42 62.9182 97.031 56.5293 89.1499 56.5293C81.2688 56.5293 74.8799 62.9182 74.8799 70.7993C74.8799 78.6804 81.2688 85.0693 89.1499 85.0693Z" fill="#E57CD8"/>
<path d="M79.81 113.76C79.81 113.76 80.1101 99.4296 80.4101 90.9396C80.5801 86.3096 81.0101 78.5996 81.4101 72.5296C81.4767 71.386 81.7808 70.2688 82.303 69.2492C82.8252 68.2296 83.5539 67.3299 84.4429 66.6074C85.3319 65.885 86.3616 65.3556 87.4664 65.0529C88.5712 64.7503 89.727 64.681 90.8601 64.8496C92.8089 65.1479 94.5867 66.1335 95.8723 67.6282C97.1579 69.1228 97.8665 71.0281 97.8701 72.9996V108.5C97.8694 109.937 98.4069 111.322 99.3768 112.383C100.347 113.443 101.679 114.102 103.11 114.23L105.04 114.4C107.327 114.608 109.518 115.419 111.39 116.75L111.69 116.97C113.063 117.95 114.616 118.65 116.26 119.03C119.164 119.711 121.745 121.371 123.57 123.73C124.618 125.078 125.366 126.634 125.765 128.295C126.163 129.956 126.202 131.682 125.88 133.36L125.47 135.51C124.307 141.625 121.997 147.465 118.66 152.72C115.892 157.091 112.022 160.657 107.438 163.059C102.855 165.46 97.7201 166.612 92.5501 166.4C87.1819 166.176 81.9771 164.488 77.4985 161.52C73.02 158.552 69.438 154.416 67.14 149.56L64.6601 144.33C63.6094 142.108 62.1469 140.106 60.35 138.43C58.4895 136.688 56.988 134.598 55.9301 132.28L55.4801 131.28C54.761 129.71 53.8398 128.241 52.7401 126.91L46.9001 119.91C46.0062 118.831 45.5055 117.48 45.48 116.079C45.4546 114.678 45.9059 113.31 46.76 112.2C47.4958 111.254 48.4905 110.542 49.6232 110.152C50.756 109.761 51.9778 109.708 53.14 110C57.6529 111.122 61.63 113.79 64.38 117.54L71.1201 126.73C71.6752 127.489 72.4524 128.057 73.3443 128.355C74.2361 128.653 75.1986 128.667 76.0988 128.395C76.9989 128.123 77.7923 127.578 78.3693 126.835C78.9464 126.093 79.2786 125.189 79.32 124.25L79.81 113.76Z" fill="#68372E"/>
</svg>
