<svg width="149" height="176" viewBox="0 0 149 176" fill="none" xmlns="http://www.w3.org/2000/svg">
<circle cx="47.7063" cy="142.639" r="13" transform="rotate(-19.8495 47.7063 142.639)" fill="#E889DC"/>
<path fill-rule="evenodd" clip-rule="evenodd" d="M69.9622 64.9473C73.3585 65.389 75.7512 68.5203 75.3195 71.8399L74.4336 78.6605C88.0981 83.3295 97.0505 97.089 95.1172 111.957L94.3152 118.125C93.8723 121.531 94.4191 126.9 95.5329 130.106L100.594 144.676C101.71 147.887 99.8468 150.13 96.4221 149.685L22.7107 140.1C19.2911 139.655 18.0616 137.006 19.9584 134.191L28.5773 121.4C30.4769 118.581 32.367 113.603 32.8188 110.128L33.6209 103.96C35.5523 89.1067 47.7469 78.0923 62.1292 77.0635L63.0203 70.2406C63.4266 67.1159 66.115 64.8467 69.2353 64.8945L69.9622 64.9473Z" fill="#EDA3E4"/>
<path d="M43.9956 33.7274C44.1519 33 44.4524 32.3105 44.8798 31.6991L61.0309 -0.670122L73.0149 16.4459L53.7643 38.5761C52.8587 39.5983 51.6102 40.2602 50.2509 40.4386C48.8916 40.6171 47.514 40.3 46.3742 39.5464C45.7517 39.1332 45.2185 38.6012 44.8057 37.9813C44.3929 37.3615 44.1086 36.6661 43.9696 35.9358C43.8305 35.2055 43.8393 34.4548 43.9956 33.7274Z" fill="#A85D42"/>
<path d="M38.0485 16.9996C38.48 16.3936 39.029 15.8795 39.6636 15.4873L63.3947 -1.52492L71.5389 12.6222L45.0986 25.3203C43.8622 25.9003 42.4537 26.0137 41.1348 25.6393C39.816 25.2649 38.6766 24.4283 37.9284 23.2848C37.5204 22.659 37.2415 21.9593 37.1079 21.2266C36.9742 20.494 36.9886 19.7429 37.1501 19.0172C37.3116 18.2915 37.617 17.6057 38.0485 16.9996Z" fill="#A85D42"/>
<path d="M42.3734 0.401703C43.0475 0.0869187 43.7785 -0.0899876 44.5239 -0.118711L80.0155 -7.70634L73.6741 13.0916L44.4093 11.1158C43.0476 11.0114 41.766 10.4162 40.8028 9.44065C39.8395 8.46511 39.2602 7.17568 39.1724 5.81206C39.1257 5.06641 39.2277 4.32014 39.4724 3.61672C39.717 2.9133 40.0995 2.26678 40.5976 1.71482C41.0956 1.16286 41.6993 0.716487 42.3734 0.401703Z" fill="#A85D42"/>
<path d="M66.7372 4.3762C66.9065 1.43417 69.5705 -0.724121 72.4836 -0.279351L89.7611 2.35853C92.736 2.81274 94.6385 5.77294 93.8161 8.66779L79.4113 59.3668L76.7078 77.3237C76.5451 78.4039 75.5459 79.1537 74.4633 79.0081L62.2922 77.3703C61.1677 77.219 60.3942 76.1636 60.5885 75.0457L63.7025 57.1263L66.7372 4.3762Z" fill="#564260"/>
<path d="M65.2742 53.0541C60.8339 58.5937 55.9223 55.5389 55.6817 51.1697C55.1894 47.3374 53.4863 14.7631 54.7003 11.42C57.1583 4.65094 64.5581 -4.17209 67.8093 -5.34503C70.9634 -6.48294 82.0461 -14.0485 95.0116 -15.1642C107.977 -16.2799 115.081 -3.3483 112.944 6.78071C110.808 16.9097 105.944 17.6744 100.722 27.235C98.4307 31.429 95.7519 37.4956 94.054 43.9014C92.356 50.3073 85.7655 46.8636 84.8108 44.219C83.4437 40.432 86.2141 25.8874 86.2582 22.3066C86.3024 18.7257 73.6127 21.179 72.0685 23.0733C68.98 26.8619 69.7145 47.5146 65.2742 53.0541Z" fill="#CD9460"/>
</svg>
