<svg width="271" height="200" viewBox="0 0 271 200" fill="none" xmlns="http://www.w3.org/2000/svg">
<mask id="mask0_1631_26362" style="mask-type:alpha" maskUnits="userSpaceOnUse" x="0" y="0" width="271" height="200">
<rect width="271" height="200" fill="#D9D9D9"/>
</mask>
<g mask="url(#mask0_1631_26362)">
<path d="M118.971 129.849C109.899 122.794 98.393 119.627 86.9839 121.045C75.5748 122.463 65.1966 128.351 58.1316 137.413C51.0694 146.477 47.8995 157.972 49.3191 169.371C50.7388 180.77 56.6316 191.138 65.7017 198.197L74.2551 204.847L141.525 147.393L118.971 129.849Z" fill="#EFB0E8"/>
<path d="M180.098 75.394C178.549 75.394 177.035 74.9351 175.747 74.0754C174.459 73.2157 173.456 71.9937 172.863 70.5641C172.27 69.1344 172.115 67.5612 172.417 66.0435C172.719 64.5258 173.465 63.1317 174.561 62.0375C175.656 60.9432 177.051 60.1981 178.57 59.8962C180.089 59.5943 181.664 59.7492 183.095 60.3414C184.526 60.9336 185.749 61.9364 186.609 63.2231C187.47 64.5098 187.929 66.0225 187.929 67.5699C187.929 69.645 187.104 71.6351 185.636 73.1024C184.167 74.5697 182.175 75.394 180.098 75.394ZM180.098 62.3539C179.065 62.3539 178.056 62.6598 177.198 63.2329C176.339 63.8061 175.67 64.6207 175.275 65.5738C174.88 66.5269 174.776 67.5757 174.978 68.5875C175.179 69.5993 175.676 70.5287 176.406 71.2582C177.137 71.9877 178.067 72.4845 179.08 72.6857C180.092 72.887 181.142 72.7837 182.096 72.3889C183.05 71.9941 183.865 71.3256 184.439 70.4678C185.013 69.61 185.319 68.6015 185.319 67.5699C185.31 66.1926 184.756 64.8748 183.777 63.9041C182.799 62.9334 181.477 62.3886 180.098 62.3886V62.3539Z" fill="#564260"/>
<path d="M219.673 56.0515C219.786 56.0515 230.697 50.7746 240.739 45.9063C245.172 43.755 250.269 43.4102 254.952 44.9449C259.635 46.4796 263.537 49.7735 265.833 54.1303C267.559 57.4008 268.291 61.104 267.939 64.7846C267.586 68.4651 266.165 71.9625 263.849 74.8467L225.041 123.225L215 87.2348L219.673 56.0515Z" fill="#817187"/>
<path d="M128.674 62.0503C120.145 54.9413 109.38 51.0664 98.2734 51.1077C87.1667 51.1491 76.4307 55.1041 67.9557 62.2763L66.4765 63.5281L38.6322 87.0699L29.0608 95.1547L55.7304 115.628L64.4317 107.864L85.1147 89.4519C87.797 87.0697 91.2496 85.7345 94.8381 85.6914C98.4267 85.6482 101.91 86.9001 104.649 89.2171L123.314 105.083C123.534 105.271 123.715 105.502 123.843 105.762C123.972 106.022 124.046 106.306 124.062 106.595H167.673L171.153 97.5106L128.674 62.0503Z" fill="#95899B"/>
<path d="M124.088 106.595C124.124 107.05 124.011 107.505 123.766 107.89C123.534 108.254 123.197 108.539 122.8 108.708C122.432 108.869 122.027 108.926 121.629 108.87C121.231 108.815 120.856 108.65 120.546 108.395L93.3114 85.7917C90.2748 86.1391 87.4205 87.4176 85.1408 89.4517L64.4839 107.864L130.074 160.694L150.218 152.105L152.567 146.02L167.699 106.63L124.088 106.595Z" fill="#C0B8C3"/>
<path d="M45.0276 45.7932L20.3855 72.3429L38.667 87.0695L66.4764 63.5278L45.0276 45.7932Z" fill="#C0B8C3"/>
<path d="M104.414 74.3425C103.671 75.5378 103.383 76.9599 103.602 78.3498C103.821 79.7397 104.532 81.0047 105.606 81.9144L130.248 102.779L160.703 74.2295C161.432 73.5435 162.013 72.7157 162.411 71.797C162.808 70.8783 163.013 69.8881 163.013 68.8874C163.013 67.8866 162.808 66.8965 162.411 65.9778C162.013 65.0591 161.432 64.2313 160.703 63.5453L142.952 46.8279C142.267 46.1808 141.401 45.7557 140.47 45.6083C139.538 45.4609 138.584 45.5982 137.732 46.002C139.113 43.6411 139.534 40.8399 138.906 38.1779L132.546 11.2284C132.391 10.5751 132.073 9.97198 131.62 9.47633C131.167 8.98069 130.594 8.60897 129.957 8.39645C129.32 8.18393 128.639 8.13767 127.978 8.26207C127.318 8.38646 126.701 8.67738 126.185 9.10721L96.4264 33.9443C94.7656 35.3289 93.54 37.1627 92.8964 39.2259C92.2528 41.2891 92.2186 43.4939 92.7979 45.576L100.107 71.7084C100.364 72.6142 100.958 73.3881 101.766 73.8726C102.574 74.3571 103.537 74.5158 104.458 74.3164L104.414 74.3425Z" fill="#564260"/>
<path d="M99.1847 42.9947L104.98 66.1366C105.042 66.3771 105.164 66.5977 105.335 66.7775C105.507 66.9572 105.721 67.0901 105.959 67.1633C106.196 67.2366 106.448 67.2478 106.691 67.1959C106.934 67.144 107.16 67.0307 107.347 66.8668L132.798 44.1683C133.386 43.6475 133.822 42.9773 134.06 42.2288C134.297 41.4803 134.327 40.6815 134.147 39.9173L128.926 17.3144C128.869 17.0719 128.751 16.8481 128.582 16.6645C128.414 16.4808 128.201 16.3435 127.964 16.2658C127.728 16.1881 127.475 16.1726 127.23 16.2207C126.986 16.2689 126.757 16.3791 126.568 16.5407L100.638 38.5872C100.004 39.1097 99.5305 39.801 99.2733 40.581C99.0162 41.3611 98.9854 42.198 99.1847 42.9947Z" fill="#FDF4F0"/>
<path d="M131.232 121.678L114.83 94.9544C114.448 94.3347 114.211 93.6365 114.139 92.9124C114.066 92.1882 114.159 91.4571 114.41 90.774C114.662 90.0909 115.065 89.4738 115.59 88.9691C116.115 88.4644 116.747 88.0854 117.44 87.8605C118.415 87.5512 119.462 87.5606 120.431 87.8874C121.4 88.2142 122.239 88.8413 122.826 89.6775L127.777 96.7017C127.953 96.9582 128.218 97.1397 128.521 97.2105C128.824 97.2813 129.142 97.2362 129.413 97.0843C129.679 96.9401 129.885 96.706 129.993 96.4239C130.101 96.1419 130.106 95.8304 130.005 95.5455L126.237 85.1134C126.006 84.4758 125.908 83.7977 125.949 83.1208C125.989 82.4439 126.168 81.7824 126.473 81.1769C126.779 80.5713 127.205 80.0345 127.725 79.5992C128.246 79.1639 128.85 78.8394 129.5 78.6456C130.711 78.2883 132.013 78.4027 133.143 78.9656C134.273 79.5285 135.148 80.4982 135.591 81.6795L139.246 91.477C139.342 91.7328 139.533 91.942 139.779 92.0617C140.025 92.1813 140.307 92.2023 140.568 92.1203C140.81 92.0442 141.016 91.8836 141.148 91.6681C141.281 91.4525 141.331 91.1964 141.29 90.9467L139.672 80.732C139.575 80.1261 139.601 79.5069 139.749 78.9113C139.896 78.3157 140.162 77.7559 140.531 77.2651C140.899 76.7743 141.363 76.3627 141.894 76.0547C142.425 75.7468 143.013 75.5487 143.622 75.4724H143.762C144.948 75.3257 146.144 75.6482 147.095 76.3711C148.046 77.0939 148.677 78.1599 148.852 79.341L153.072 107.847L131.232 121.678Z" fill="#CD9460"/>
<path d="M143.231 150.697C143.1 150.653 141.377 149.897 139.019 148.871C134.843 147.049 131.374 143.918 129.137 139.952C126.9 135.985 126.016 131.398 126.62 126.885C127.081 123.429 128.398 120.142 130.452 117.323C132.507 114.503 135.233 112.241 138.384 110.742L141.795 109.116C145.579 107.324 149.061 104.954 152.115 102.092L157.858 96.6845C160.899 93.8281 164.867 92.1591 169.038 91.982C173.208 91.8049 177.304 93.1314 180.577 95.7196L190.227 103.352L194.386 126.251L152.454 155.895L143.231 150.697Z" fill="#817187"/>
<path d="M210.065 47.7582C205.729 46.2632 201.004 46.3402 196.718 47.9757C192.432 49.6112 188.859 52.7009 186.624 56.7037C184.231 61.0504 182.273 64.6581 182.273 64.6581C182.273 64.6581 179.106 69.822 175.808 75.0902C173.87 78.2059 173.148 81.9253 173.778 85.5392C174.409 89.153 176.349 92.4086 179.228 94.6852L187.747 101.423C189.335 99.3211 191.336 97.5667 193.629 96.2673C195.148 95.3962 196.471 94.2221 197.517 92.8182C198.563 91.4143 199.309 89.8105 199.708 88.1064C200.107 86.4024 200.151 84.6346 199.837 82.9129C199.523 81.1911 198.858 79.5523 197.884 78.0981L196.631 76.2204H221.464L222.7 69.5612C224.118 60.7983 218.314 52.4874 210.065 47.7582Z" fill="#CD9460"/>
<path d="M174.949 63.963L174.102 66.4299L199.395 75.0965L200.242 72.6296L174.949 63.963Z" fill="#564260"/>
<path d="M233.777 132.805C232.275 130.324 231.397 127.516 231.216 124.622C231.036 121.727 231.559 118.832 232.741 116.184C236.718 107.255 234.133 96.7539 226.903 90.1643L220.037 83.9137L222.648 69.9347C223.49 65.3539 222.695 60.6228 220.399 56.5688C218.104 52.5149 214.456 49.3961 210.092 47.7578C207.422 46.8165 204.579 46.4711 201.762 46.7459C198.945 47.0208 196.222 47.9092 193.785 49.3487C188.312 52.5827 186.119 59.5982 189.278 65.1012C189.423 65.362 189.58 65.6141 189.748 65.8575L197.492 77.5675C198.5 79.1029 199.186 80.8269 199.507 82.635C199.828 84.443 199.779 86.2974 199.361 88.0857C198.944 89.8741 198.167 91.5591 197.079 93.0386C195.99 94.5182 194.612 95.7614 193.028 96.693C190.807 98.0569 188.886 99.8576 187.383 101.986C185.879 104.114 184.824 106.526 184.282 109.074C183.74 111.622 183.722 114.254 184.23 116.809C184.737 119.364 185.759 121.79 187.233 123.938L189.2 126.807L191.271 156.999L223.927 162.763L229.252 158.564C233.018 155.559 235.556 151.283 236.39 146.54C237.223 141.796 236.294 136.912 233.777 132.805Z" fill="#564260"/>
<path d="M221.665 135.022C214.31 126.43 203.84 121.108 192.559 120.226C181.277 119.345 170.107 122.975 161.504 130.319L141.491 147.393L74.2207 204.848L137.375 253.983C138.948 255.207 140.896 255.85 142.889 255.804C144.882 255.758 146.798 255.026 148.312 253.731L210.214 200.858L216.922 195.129C221.188 191.496 224.695 187.058 227.242 182.07C229.79 177.082 231.328 171.641 231.768 166.058C232.208 160.475 231.543 154.861 229.809 149.535C228.076 144.21 225.308 139.278 221.665 135.022Z" fill="#EFB0E8"/>
<path d="M21.2034 85.2263C18.6822 82.9817 15.3719 81.8297 12.0005 82.0238C8.62919 82.2178 5.47309 83.7419 3.22651 86.2608C0.979926 88.7797 -0.173098 92.0871 0.0210883 95.4553C0.215274 98.8236 1.74076 101.977 4.26197 104.221L24.275 122.251C27.5672 125.216 31.8391 126.862 36.2712 126.873C40.7033 126.884 44.9835 125.26 48.2907 122.312L49.6916 121.034L55.7825 115.61L30.8358 93.6936L21.2034 85.2263Z" fill="#6B5A74"/>
<path d="M14.634 67.6662C14.8428 67.8487 15.0343 68.0487 15.2518 68.2225L20.3856 72.3519L46.8289 47.2541L53.3027 41.1165C54.6111 39.879 55.6504 38.3856 56.3558 36.7293C57.0613 35.073 57.4177 33.2893 57.403 31.4893C57.3883 29.6893 57.0028 27.9117 56.2704 26.2671C55.538 24.6225 54.4745 23.1462 53.1461 21.9302C50.6598 19.6652 47.3972 18.4418 44.0332 18.513C40.6693 18.5841 37.4615 19.9445 35.0734 22.3127L13.9727 43.1768C12.3398 44.7922 11.0557 46.7249 10.1998 48.8556C9.34388 50.9862 8.93425 53.2695 8.99623 55.5646C9.0582 57.8596 9.59046 60.1175 10.5601 62.1989C11.5298 64.2804 12.9163 66.1411 14.634 67.6662Z" fill="#6B5A74"/>
</g>
</svg>
