<svg width="84" height="81" viewBox="0 0 84 81" fill="none" xmlns="http://www.w3.org/2000/svg">
<path fill-rule="evenodd" clip-rule="evenodd" d="M24.3723 14.8815C26.8846 17.3074 27.1185 21.1409 24.8948 23.4438C22.671 25.7468 18.8317 25.6471 16.3194 23.2212C15.7361 22.6579 15.2756 22.0188 14.9402 21.3405C14.5715 20.5951 13.4938 20.2704 12.9162 20.8686L7.07087 26.9221C6.68724 27.3194 6.69831 27.9525 7.09561 28.3361L12.049 33.1192C12.5105 33.5648 12.4349 34.3241 11.9709 34.7672C11.9025 34.8324 11.8352 34.8993 11.7689 34.968C9.34305 37.4803 9.24338 41.3196 11.5463 43.5433C13.8493 45.767 17.6827 45.5331 20.1086 43.0208C20.1749 42.9522 20.2394 42.8825 20.3022 42.812C20.7288 42.3327 21.485 42.2306 21.9465 42.6762L27.2642 47.811C27.6615 48.1947 28.2946 48.1836 28.6782 47.7863L33.956 42.3205C34.4797 41.7782 34.2379 40.851 33.5881 40.4688C33.132 40.2007 32.6978 39.873 32.2972 39.4863C29.7849 37.0604 29.551 33.2269 31.7747 30.924C33.9985 28.621 37.8378 28.7207 40.3501 31.1466C40.7506 31.5333 41.0932 31.9559 41.3772 32.4023C41.7819 33.0384 42.7169 33.2475 43.2406 32.7052L48.1531 27.6177C48.5368 27.2204 48.5257 26.5873 48.1284 26.2037L42.7857 21.0447C42.2992 20.575 42.4122 19.7637 42.9303 19.3292C43.115 19.1743 43.2938 19.0079 43.4654 18.8301C45.8913 16.3178 45.991 12.4785 43.688 10.2548C41.3851 8.03103 37.5516 8.26496 35.1257 10.7773C34.9541 10.955 34.7941 11.1395 34.6457 11.3295C34.2296 11.8625 33.4227 12.0038 32.9363 11.5341L27.9598 6.72877C27.5625 6.34514 26.9294 6.35622 26.5458 6.75351L21.902 11.5627C21.3244 12.1609 21.6866 13.2266 22.4444 13.5689C23.134 13.8804 23.7889 14.3183 24.3723 14.8815Z" fill="#F1BCEB"/>
<path fill-rule="evenodd" clip-rule="evenodd" d="M68.1938 49.6989C65.768 52.2112 61.9345 52.4451 59.6315 50.2214C57.3286 47.9977 57.4283 44.1584 59.8542 41.6461C60.4171 41.0631 61.0558 40.6028 61.7336 40.2674C62.4788 39.8987 62.8032 38.8213 62.2051 38.2439L56.1523 32.3993C55.755 32.0156 55.122 32.0267 54.7383 32.424L49.958 37.3746C49.5124 37.8361 48.7532 37.7605 48.3101 37.2966C48.2451 37.2285 48.1783 37.1614 48.1099 37.0953C45.5976 34.6694 41.7583 34.5697 39.5346 36.8727C37.3108 39.1756 37.5448 43.0091 40.057 45.435C40.1255 45.501 40.1949 45.5654 40.2652 45.628C40.7444 46.0546 40.8465 46.8107 40.4009 47.2722L35.2634 52.5926C34.8798 52.9899 34.8909 53.623 35.2882 54.0066L40.7538 59.2843C41.2961 59.808 42.2234 59.5662 42.6055 58.9163C42.8737 58.4602 43.2014 58.0259 43.5882 57.6253C46.0141 55.113 49.8475 54.8791 52.1505 57.1028C54.4534 59.3265 54.3537 63.1658 51.9278 65.6781C51.541 66.0787 51.1185 66.4214 50.672 66.7054C50.0359 67.11 49.8267 68.0451 50.369 68.5688L55.4568 73.4815C55.8541 73.8652 56.4871 73.8541 56.8708 73.4568L62.0304 68.1134C62.5001 67.627 63.3114 67.7399 63.7459 68.258C63.9007 68.4427 64.0671 68.6214 64.2448 68.793C66.7571 71.2189 70.5964 71.3186 72.8201 69.0156C75.0439 66.7127 74.81 62.8792 72.2977 60.4533C72.1199 60.2817 71.9355 60.1217 71.7456 59.9734C71.2126 59.5573 71.0713 58.7504 71.541 58.264L76.3457 53.2882C76.7293 52.8909 76.7182 52.2578 76.3209 51.8742L71.5117 47.2304C70.9137 46.6529 69.8483 47.0148 69.5059 47.7724C69.1944 48.4615 68.7568 49.1159 68.1938 49.6989Z" fill="#2C1338"/>
</svg>
