<svg width="169" height="37" viewBox="0 0 169 37" fill="none" xmlns="http://www.w3.org/2000/svg">
<path d="M104.153 28.3314C103.695 28.3958 103.234 28.4271 102.773 28.4252C101.24 28.4252 100.089 28.0408 99.3192 27.2719C98.5495 26.5031 98.1603 25.168 98.1516 23.2667V11.6748H94.4889V9.67047H98.1516V4.70996H100.281V9.67047H105.34V11.6748H100.281V23.3779C100.281 24.3679 100.467 25.1147 100.839 25.5906C101.211 26.0665 101.886 26.3132 102.861 26.3132C103.327 26.3169 103.793 26.2926 104.257 26.2402C104.652 26.1916 105.046 26.1291 105.444 26.0526V28.0605C105.015 28.1816 104.58 28.2744 104.14 28.3384" fill="#E57CD8"/>
<path fill-rule="evenodd" clip-rule="evenodd" d="M55.9149 26.723C57.0271 27.8207 57.4609 29.4881 57.5131 31.0652C57.5461 32.888 56.939 34.6583 55.8105 36.0292H48.309C48.4798 35.7477 48.5704 35.4195 48.57 35.0843C48.57 34.1256 47.6535 33.5142 46.75 33.5142H42.8362C37.4254 33.5142 37.5526 28.4912 37.5526 28.4912C37.5771 26.5063 38.323 24.6088 39.6334 23.1972C40.2401 22.5002 40.9415 21.9042 41.7143 21.4291L42.0404 21.2554C41.8904 21.1234 41.7404 20.9914 41.6001 20.8489C40.0146 19.2131 39.1421 16.9467 39.1931 14.5962C39.1421 12.2457 40.0146 9.9793 41.6001 8.34347C43.2831 6.66565 45.5987 5.94658 47.8818 5.94658C48.9759 5.94087 50.0641 6.11666 51.1074 6.46764L53.746 2.55273L56.9097 4.98436C55.7877 7.04776 54.1537 7.53061 52.5751 7.14155C53.1503 7.47133 53.683 7.87881 54.1602 8.35389C55.7457 9.98972 56.6182 12.2562 56.5672 14.6066C56.6178 16.957 55.7454 19.2233 54.1602 20.8594C52.4773 22.5372 50.1649 23.2528 47.8818 23.2528C46.3849 23.2724 44.9028 22.9353 43.544 22.2662C43.407 22.3114 43.2798 22.3461 43.2798 22.3461C42.7381 22.4989 42.3606 23.0207 42.36 23.6175C42.4156 24.3809 43.0279 24.9609 43.7462 24.9306H51.2053C52.8752 24.9306 54.6723 25.4933 55.9149 26.723ZM49.2331 13.1327C48.5011 12.3531 47.3257 12.3155 46.5511 13.0469C45.8473 13.8844 45.8473 15.1517 46.5511 15.9892C47.3374 16.7388 48.5272 16.7388 49.3136 15.9892C50.0003 15.1642 49.9651 13.9123 49.2331 13.1327Z" fill="#E57CD8"/>
<path fill-rule="evenodd" clip-rule="evenodd" d="M77.2257 26.7092C78.3378 27.8069 78.7716 29.4743 78.8238 31.0513L78.8466 31.0548C78.8788 32.8781 78.2705 34.6484 77.1409 36.0188H69.6394C69.8101 35.7372 69.9007 35.4091 69.9003 35.0739C69.9003 34.1152 68.9838 33.5038 68.0804 33.5038H64.1665C58.7589 33.5038 58.9024 28.4912 58.9024 28.4912C58.927 26.5063 59.6729 24.6088 60.9833 23.1972C61.3463 22.7863 61.74 22.4076 62.1607 22.0648C61.5814 21.7339 61.0443 21.3253 60.5626 20.8489C58.977 19.2131 58.1046 16.9467 58.1556 14.5962C58.1046 12.2457 58.977 9.9793 60.5626 8.34347C62.2455 6.66565 64.5612 5.94658 66.8442 5.94658C67.9383 5.94087 69.0266 6.11666 70.0699 6.46764L72.7084 2.55273L75.8754 4.98436C74.7502 7.04776 73.1194 7.53061 71.5376 7.14155C72.1099 7.46987 72.6405 7.87497 73.1161 8.34694C74.7017 9.98278 75.5741 12.2492 75.5231 14.5997C75.5737 16.9501 74.7013 19.2163 73.1161 20.8524C71.4299 22.5302 69.1175 23.2458 66.8345 23.2458C65.752 23.2528 64.6749 23.0817 63.6414 22.7387C63.1196 22.8498 62.9109 23.5098 62.9109 23.9545C62.9188 24.2129 63.0266 24.4564 63.2087 24.6274C63.3909 24.7984 63.6312 24.8817 63.873 24.8576L72.516 24.9167C74.1859 24.9167 75.983 25.4794 77.2257 26.7092ZM68.1673 12.6714C67.3262 12.1122 66.2306 12.27 65.5592 13.0469C65.1965 13.4438 65 13.9801 65.0145 14.5337C65.0145 15.5896 65.7203 16.496 66.6946 16.6913C67.6689 16.8866 68.6357 16.3155 68.9961 15.3318C69.3565 14.3481 69.0083 13.2305 68.1673 12.6714Z" fill="#E57CD8"/>
<path d="M87.8843 28.4908V21.0083C86.2732 21.2272 85.7122 20.0148 85.7122 18.8129V0.541016H77.7117V20.1781C77.7117 22.6097 78.0378 24.6488 78.876 25.9306C80.1448 27.8759 81.8603 29.1542 85.2751 29.1681C86.1809 29.1336 87.0699 28.897 87.8843 28.4734" fill="#E57CD8"/>
<path fill-rule="evenodd" clip-rule="evenodd" d="M27.1614 6.01953C29.9696 6.01953 32.7973 6.98176 34.8619 9.2258C36.8579 11.4108 37.7972 14.4642 37.7972 17.594C37.7972 20.7239 36.8742 23.7808 34.8619 25.9658C32.7973 28.2098 29.9728 29.172 27.1614 29.172C24.35 29.172 21.5222 28.2098 19.4577 25.9658C17.4649 23.7808 16.5223 20.7204 16.5223 17.594C16.5223 14.4677 17.4486 11.4108 19.4577 9.2258C21.5222 6.97828 24.3532 6.01953 27.1614 6.01953ZM25.5274 19.9134C26.6223 20.6283 28.0402 20.4097 28.8998 19.3934C29.3564 18.8824 29.6029 18.1985 29.5847 17.4933C29.5845 16.1255 28.6682 14.9524 27.4055 14.7033C26.1427 14.4541 24.8927 15.1997 24.4324 16.4767C23.9721 17.7536 24.4325 19.1986 25.5274 19.9134Z" fill="#E57CD8"/>
<path d="M13.6228 21.0361C12.2921 21.0361 11.7474 20.6019 11.255 19.9349C10.9031 19.3751 10.7357 18.7068 10.7788 18.0348V14.165H15.2438V7.21755H10.7788V0.541016H5.07112V3.03864C5.07112 5.81763 3.09138 8.04778 0.648502 8.04778C0.468533 8.04739 0.288776 8.03462 0.110352 8.00956V14.165H3.10769V20.3414C3.10769 22.773 3.51864 24.6523 4.3438 25.9306C5.61906 27.8829 7.02803 29.1612 10.4755 29.1612C12.1286 29.2075 13.7667 28.8172 15.2438 28.0253V20.7513C14.7211 20.9519 14.1685 21.0496 13.613 21.0396" fill="#E57CD8"/>
<path d="M112.633 10.1913C113.605 9.40954 114.798 9.00397 116.015 9.04144C116.589 9.05076 117.16 9.11236 117.724 9.22555V11.6051C117.425 11.5335 117.122 11.4836 116.817 11.4557C116.54 11.4314 116.26 11.4175 115.982 11.4175C115.089 11.3847 114.204 11.6028 113.416 12.0497C112.738 12.463 112.168 13.0506 111.759 13.7588C111.316 14.5473 111.015 15.4167 110.872 16.3224C110.692 17.364 110.605 18.4211 110.611 19.48V28.0637H108.481V9.48608H110.539V13.7414C111.005 12.1539 111.703 10.9624 112.633 10.2086" fill="#E57CD8"/>
<path fill-rule="evenodd" clip-rule="evenodd" d="M121.621 10.323C121.094 10.7001 120.643 11.1869 120.297 11.7542V11.7612C119.973 12.2983 119.726 12.8836 119.563 13.498L121.449 14.5784C121.912 12.2487 123.621 11.0838 126.576 11.0838C128.202 11.0838 129.376 11.4497 130.098 12.1815C130.842 12.9692 131.236 14.0568 131.181 15.1724V15.8393C131.181 16.2736 130.891 16.5445 130.307 16.6209L124.518 17.2149C123.064 17.3268 121.673 17.8949 120.522 18.8476C119.466 19.7647 118.937 21.0905 118.937 22.825C118.932 23.5862 119.061 24.3417 119.319 25.0517C119.564 25.7271 119.946 26.3367 120.437 26.8372C120.965 27.3575 121.588 27.7561 122.267 28.0079C123.081 28.3068 123.938 28.4514 124.798 28.4351C126.167 28.4628 127.515 28.0761 128.686 27.3201C129.827 26.5613 130.703 25.4254 131.181 24.086V28.0635H133.307V15.8637C133.31 13.5849 132.752 11.8758 131.634 10.7364C130.517 9.59703 128.796 9.02733 126.471 9.02733C125.52 9.0144 124.571 9.13114 123.647 9.37471C122.925 9.56344 122.24 9.88433 121.621 10.323ZM122.006 20.5393C122.565 19.8816 123.507 19.4787 124.831 19.3305L131.181 18.6044V20.1121C131.18 20.887 131.044 21.655 130.78 22.3769C130.514 23.1187 130.11 23.7957 129.593 24.3674C129.049 24.9657 128.401 25.4448 127.685 25.7777C126.86 26.1515 125.971 26.335 125.075 26.3162C123.786 26.3162 122.815 26 122.163 25.3678C121.493 24.72 121.128 23.788 121.168 22.825C121.162 21.9768 121.462 21.1583 122.006 20.5393Z" fill="#E57CD8"/>
<path d="M136.442 14.9116C136.852 13.7541 137.48 12.6984 138.288 11.8096C139.107 10.9176 140.094 10.2203 141.184 9.76353C142.375 9.26987 143.644 9.02458 144.922 9.04099C146.083 9.02383 147.237 9.23827 148.323 9.67321C149.318 10.0837 150.225 10.7027 150.991 11.4935L149.631 13.2755C148.977 12.6448 148.227 12.1363 147.413 11.7714C146.587 11.4064 145.699 11.2233 144.804 11.2329C143.862 11.2218 142.926 11.4046 142.048 11.7714C141.239 12.1104 140.503 12.6223 139.886 13.2755C139.26 13.9517 138.779 14.7632 138.474 15.655C138.124 16.6547 137.952 17.7147 137.965 18.7814C137.951 19.8401 138.124 20.8922 138.474 21.8834C138.784 22.7713 139.265 23.5805 139.886 24.2595C140.498 24.9236 141.235 25.4431 142.048 25.7844C142.914 26.1486 143.838 26.3315 144.768 26.3229C145.709 26.3311 146.641 26.1349 147.508 25.7462C148.345 25.3715 149.116 24.8501 149.791 24.2039L151.096 25.9894C150.308 26.7611 149.398 27.3774 148.408 27.8096C147.268 28.2941 146.048 28.5303 144.821 28.5044C143.544 28.5237 142.275 28.2783 141.086 27.7818C140.014 27.3268 139.041 26.6436 138.226 25.774C137.426 24.8998 136.808 23.8558 136.412 22.7102C135.987 21.4613 135.776 20.1411 135.789 18.8126C135.778 17.4805 135.999 16.1576 136.442 14.9116Z" fill="#E57CD8"/>
<path d="M153.653 3.59766V28.0632H155.783V22.5261L158.956 19.1461L165.339 28.0632H168.131L160.388 17.5864L167.955 9.48565H164.957L155.783 19.629V3.59766H153.653Z" fill="#E57CD8"/>
</svg>
